<svg width="58" height="58" fill="none" xmlns="http://www.w3.org/2000/svg"><g clip-path="url(#clip0_1_253)"><path d="M29 57.54c15.762 0 28.54-12.778 28.54-28.54C57.54 13.238 44.762.46 29 .46 13.238.46.46 13.238.46 29 .46 44.762 13.238 57.54 29 57.54z" stroke="#000" stroke-width="1.016"/><path d="M37.949 21.396c-.08-.28-.466-.262-.507.026-.242 1.69 1.15 5.686.653 7.535l-.01.037c-.108.395-.676.318-.68-.093-.017-1.598-.426-3.345-1.302-4.415-3.303-4.03.224-7.003.094-7.967a.194.194 0 00-.262-.163l-.01.005c-.21.12-.408.264-.605.405-1.32.944-2.532 2.08-3.231 3.611-.402.88-.508 1.863-.737 2.797-.088.356-.189.707-.306 1.053-.132.389-.316.78-.608 1.067a.928.928 0 01-.467.26c-.464.091-.71-.24-.798-.63-.246-1.084-.064-2.18.028-3.272.37-4.395-4.289-4.803-2.587-11.213.45-1.698-5.644 3.884-3.59 8.74.402.95.364 1.857-.091 2.772-.485.976-1.083 1.857-1.377 2.925a7.981 7.981 0 00-.212 1.167c-.06.507.083 1.27-.568 1.402-.27.055-.645.025-.87-.157-.174-.142-.27-.364-.328-.586-.27-1.037-.236-2.085-.108-3.143.113-.932.191-2.686-.75-.935-3.034 5.643-2.926 12.67.778 17.964 1.424 2.036 3.232 3.333 5.595 3.926 4.807 1.206 10.555.84 13.581-3.409 1.156-1.623 1.85-3.605 2.304-5.546.58-2.48.69-4.836-.217-7.243-.88-2.336-2.125-4.506-2.812-6.92z" fill="#000"/></g><defs><clipPath id="clip0_1_253"><path fill="#fff" d="M0 0h58v58H0z"/></clipPath></defs></svg>