<svg width="58" height="88" fill="none" xmlns="http://www.w3.org/2000/svg"><g clip-path="url(#clip0_1_269)"><path d="M44.246 54.377c-.081-.182-.287-.14-.33.056-.42 1.901.109 9.917-3.391 8.897-2.433-.71-2.433-7.24 2.375-10.919 6.34-4.849 2.088-16.636.52-20.732-.135-.351-.604-.223-.58.158.321 4.957 1.085 8.392-.738 11.064-2.034 2.98-4.745-2.728-2.146-4.756 2.598-2.03 2.375-6.12.508-8.813-1.569-2.264-1.952-6.189-2.032-8.59-.02-.613-.788-.726-.948-.14-.762 2.781-.365 5.748-1.029 8.555-.26 1.103-.716 2.188-1.462 3.06-.5.584-1.158 1.177-1.91 1.408-1.02.316-1.658-.39-1.805-1.35-.149-.966.055-1.988.348-2.909.34-1.067.672-2.125.872-3.23.393-2.16.395-4.621-1.054-6.424-.523-.648-1.198-1.16-1.942-1.541-5.804-2.965-3.547-3.42-3.723-9.16-.024-.806-1.134-1.022-1.473-.29-3.662 7.948-2.92 10.582-1.212 14.335 2.307 5.072 4.615 11.92.455 11.617-3.67-.269-2.127-9.766-3.228-13.31-.181-.586-1.052-.473-1.076.14-.09 2.401-.525 6.327-2.305 8.59-2.118 2.693-2.372 6.784.577 8.813 2.948 2.029-.129 7.736-2.436 4.756-2.069-2.672-1.201-6.108-.838-11.066.029-.38-.503-.51-.656-.158-1.779 4.096-5.622 14.948.596 20.734 1.542 1.434 3.358 2.607 4.552 4.374.797 1.18 1.228 2.736.787 4.126-.433 1.369-2.173 3.006-3.602 1.827-1.202-.99-1.413-3.096-1.632-4.512-.195-1.272-.294-2.555-.485-3.827-.037-.244-.206-1.546-.544-.783-.84 1.898-3.417 9.342.263 15.244.52.833 1.088 1.638 1.63 2.455 1.562 2.358 3.6 4.428 6.17 5.697 3.716 1.833 8.151 2.099 12.108.912 4.897-1.469 9.312-6.066 11.37-10.622 1.896-4.194 1.27-9.559-.553-13.686h-.001z" fill="#000"/><path d="M38.877.67H18.413C8.498.67.46 8.634.46 18.458v50.763c0 9.824 8.038 17.788 17.953 17.788h20.464c9.915 0 17.953-7.964 17.953-17.788V18.458C56.83 8.634 48.792.67 38.877.67z" stroke="#000" stroke-width="1.016"/></g><defs><clipPath id="clip0_1_269"><path fill="#fff" d="M0 0h58v88H0z"/></clipPath></defs></svg>