<svg width="68" height="31" fill="none" xmlns="http://www.w3.org/2000/svg"><path d="M39.756 21.757c-.13-.075-.262-.15-.392-.227a7.225 7.225 0 00-1.495-.705 7.062 7.062 0 01-.695-.28c-.187-.083-.386-.135-.582-.195-.773-.235-1.585-.313-2.37-.493-.035-.008-.07-.017-.107-.018-.05-.002-.095.024-.11.074a2.9 2.9 0 00-.076.337c-.005.028.023.072.047.088a.805.805 0 00.318.134c.39.07.777.146 1.164.22.168.033.335.067.502.104.06.013.122.03.177.058.129.065.265.1.412.112.087.007.178.03.258.068.45.216.926.37 1.392.55.108.041.212.093.312.15.455.262.908.528 1.363.794.169.098.337.199.505.298a4.59 4.59 0 001.137.46c.475.128.948.262 1.424.39.277.074.56.128.852.13.43.001.845.073 1.262.146.31.053.623.092.936.137l1.229.175c.107.015.214.03.321.041.237.027.472-.007.706-.092.104-.04.212-.069.322-.086.182-.024.317-.107.386-.294.027-.074.075-.11.146-.115.311-.025.621-.05.922.028.095.024.193.04.29.06a.608.608 0 00.428-.066c.315-.178.64-.2.967-.163.639.072 1.263.195 1.88.355.502.13.998.284 1.507.39.598.123 1.182.293 1.773.443a4.92 4.92 0 001.64.14c.392-.034.785-.058 1.177-.103.549-.066 1.096-.08 1.643-.105a15.51 15.51 0 002.108-.215.518.518 0 01.162-.013c.028.004.052.043.07.072.004.01-.023.052-.042.059-.313.107-.597.284-.882.46-.34.211-.683.422-1.023.635a1.838 1.838 0 00-.257.182.753.753 0 00-.164.2c-.098.182.01.355.205.335a.629.629 0 00.185-.054c.07-.03.134-.073.2-.113.43-.266.863-.529 1.291-.8a3.1 3.1 0 011.07-.423c.072-.014.144-.033.217-.043.74-.11 1.373-.484 1.94-1.007a1.3 1.3 0 01.45-.292.55.55 0 00.279-.194.402.402 0 01.26-.162c.122-.02.22.03.255.147a.563.563 0 01-.056.442c-.15.261-.286.532-.472.774-.147.194-.28.399-.425.595a4.153 4.153 0 01-.96.92 8.713 8.713 0 01-1.082.647c-.236.12-.471.246-.705.37a1.4 1.4 0 00-.342.264 9.064 9.064 0 01-.378.361 1.718 1.718 0 01-.424.295c-.076.036-.146.088-.216.139-.172.123-.338.255-.513.372-.273.181-.562.32-.874.391a1.94 1.94 0 00-.398.137c-.155.083-.33.124-.506.118a.777.777 0 00-.3.038c-.65.233-1.315.323-1.982.397-.365.04-.731.053-1.095.085-.31.027-.621.06-.931.094-.402.044-.803.093-1.205.14-.054.006-.107.01-.153.056-.164.156-.364.198-.567.228-.298.042-.6.056-.9.04a1.715 1.715 0 00-.49.031.61.61 0 01-.475-.06c-.061-.037-.116-.032-.179-.01-.07.026-.141.05-.212.077-.266.098-.536.16-.812.18-.155.012-.31.038-.465.059a2.465 2.465 0 01-.758-.027 92.559 92.559 0 00-2.449-.406c-.926-.14-1.858-.253-2.782-.396-.47-.078-.936-.174-1.398-.288a17.513 17.513 0 01-1.83-.521 32.364 32.364 0 01-1.053-.395 2.168 2.168 0 01-.378-.199 20.4 20.4 0 01-.886-.598c-.232-.167-.417-.389-.592-.618a7.984 7.984 0 01-.273-.37c-.332-.485-.767-.85-1.252-1.157-.302-.191-.632-.327-.958-.468-.206-.088-.417-.162-.624-.244a.758.758 0 00-.34-.07.256.256 0 00-.238.176.223.223 0 00.059.256.958.958 0 00.243.16c.22.099.443.186.668.275.551.217 1.062.5 1.506.896.087.078.165.165.242.252.03.032.052.072.075.109-.052.047-.103.023-.154.007-.299-.096-.618-.113-.928-.16-.436-.069-.872-.133-1.309-.2a3.763 3.763 0 01-.697-.192c-.58-.206-1.16-.412-1.737-.627-.343-.126-.68-.265-1.017-.408-.435-.183-.867-.374-1.299-.563a22.837 22.837 0 01-.585-.264c-.314-.148-.626-.3-.94-.45-.282-.131-.567-.259-.85-.39-.274-.126-.55-.252-.822-.384-.249-.12-.493-.247-.742-.369-.449-.216-.896-.438-1.35-.645a4.186 4.186 0 01-.911-.6 29.87 29.87 0 01-1.929-1.738c-.172-.169-.358-.321-.537-.482-.012-.01-.017-.029-.025-.043l.075-.03c.008-.003.018 0 .027.002.309.058.616.129.906.244.472.188.932.405 1.369.664.452.268.915.517 1.4.718.506.207 1.035.34 1.578.428a.74.74 0 00.244-.013.357.357 0 00.152-.074c.118-.095.134-.247.037-.348a.335.335 0 00-.13-.088c-.094-.03-.19-.05-.287-.07-.396-.08-.79-.168-1.165-.314a8.024 8.024 0 01-1.092-.503c-.231-.132-.46-.273-.695-.398-.464-.245-.934-.479-1.438-.638a5.246 5.246 0 00-1.35-.248c-.243-.011-.489-.018-.733-.028-.09-.004-.182-.005-.272-.016-.096-.012-.193-.027-.265-.11-.064-.071-.155-.09-.25-.056-.096.035-.182.012-.267-.012-.453-.133-.9-.29-1.337-.471-.395-.165-.79-.327-1.172-.518a4.268 4.268 0 01-.352-.19c-.257-.162-.51-.328-.762-.493a3.31 3.31 0 01-.734-.622c-.098-.115-.18-.247-.268-.372-.025-.037-.042-.082-.069-.117-.037-.05-.108-.09-.113-.143-.005-.08.03-.167.057-.25.023-.073.057-.144.087-.216.1-.235.17-.476.186-.727.007-.096.017-.192.018-.287.008-.421.075-.837.163-1.256.082-.4.2-.783.37-1.159.332-.734.845-1.226 1.603-1.406.386-.093.765-.114 1.125.037.066.028.138.038.205.063.24.09.488.105.748.074.43-.052.858-.065 1.28-.007.447.062.892.13 1.317.274.178.059.35.134.526.196.083.033.17.053.26.061.169.008.276-.164.198-.318a.77.77 0 00-.391-.352 4.684 4.684 0 00-.997-.307c-.167-.034-.336-.062-.504-.093a5.548 5.548 0 00-1.628-.042c-.233.028-.456.02-.667-.066-.033-.015-.072-.015-.103-.028-.518-.22-1.058-.17-1.608-.022-.063.017-.125.04-.189.054-.022.004-.06-.003-.044-.043.06-.155.124-.309.25-.424.084-.08.165-.165.257-.233.202-.15.396-.309.573-.488a.481.481 0 01.245-.136 2.56 2.56 0 00.675-.278c.197-.11.417-.171.63-.237a.543.543 0 01.244 0c.124.016.249.039.37.07.443.113.887.223 1.323.35.284.083.561.182.835.289.74.287 1.482.57 2.24.806.265.083.534.155.8.232.368.11.723.256 1.066.428.445.224.886.454 1.312.715.457.278.82.655 1.113 1.108.154.235.303.474.464.701.315.445.693.826 1.09 1.187.091.082.202.146.308.211a.355.355 0 00.26.045c.158-.03.26-.21.184-.35a.703.703 0 00-.193-.22c-.244-.183-.454-.402-.667-.619a5.753 5.753 0 01-.69-.862.878.878 0 01-.064-.12c-.005-.007.013-.037.02-.037.072 0 .144 0 .216.007.501.05.994.156 1.472.316.245.08.488.171.71.304.307.182.619.355.918.548.24.152.462.334.698.492.392.263.773.541 1.188.77.023.011.045.029.071.035.246.064.45.213.67.328.157.082.32.156.478.238.3.155.592.323.868.522.449.323.877.67 1.304 1.023.391.324.78.651 1.188.954.35.261.717.497 1.085.732.783.498 1.52 1.055 2.157 1.742.373.402.785.757 1.203 1.106a7.5 7.5 0 00.561.408c.237.16.474.319.72.461.27.155.546.299.829.43.726.343 1.4.777 2.108 1.155a.813.813 0 01.091.055c.014.01.022.028.033.042-.023.014-.048.039-.072.039-.126 0-.256.008-.38-.009-.32-.043-.639-.097-.96-.148-.079-.012-.158-.033-.24-.037-.461-.028-.911-.112-1.362-.195a5.685 5.685 0 00-.996-.103 2.961 2.961 0 01-.749-.1 113.65 113.65 0 01-1.732-.48 3.226 3.226 0 01-.737-.313l-.972-.56a.066.066 0 00.01-.017z" fill="#000"/><path d="M7.805 8.101c.14.062.323.155.515.225.292.108.589.206.888.299.291.09.595.128.906.123.146 0 .292-.003.437-.012a4.996 4.996 0 011.325.081c.054.01.109.015.16.03.082.022.16.001.238-.042.142-.077.286-.147.43-.221a.963.963 0 01.375-.107c.218-.015.438-.036.656-.04.22-.006.434-.03.652-.096.24-.072.487-.11.732-.158a2.68 2.68 0 00.533-.168 4.31 4.31 0 011.157-.307c.275-.037.545 0 .81.051.119.023.148.118.083.237-.089.163-.218.3-.375.398-.379.237-.688.556-.97.905a.973.973 0 00-.163.276 1.547 1.547 0 01-.37.553c-.088.09-.178.18-.262.274a.768.768 0 01-.248.193.446.446 0 00-.254.33 3.158 3.158 0 01-.201.576 4.461 4.461 0 00-.339 1.169c-.043.256-.077.514-.121.77a10.204 10.204 0 01-.425 1.687 1.92 1.92 0 01-.165.342c-.129.216-.43.274-.593.11a1.276 1.276 0 01-.189-.262.832.832 0 01-.09-.231c-.072-.316-.228-.578-.415-.824-.168-.224-.314-.464-.484-.687-.198-.256-.411-.498-.615-.749-.2-.243-.397-.487-.594-.733a.847.847 0 01-.188-.451c-.006-.062-.036-.103-.093-.123a13.51 13.51 0 01-1.328-.562 18.423 18.423 0 01-1.494-.77c-.33-.19-.638-.42-.95-.639a10.426 10.426 0 01-.962-.766 7.806 7.806 0 01-1.163-1.3c-.168-.236-.33-.476-.48-.723a4.904 4.904 0 01-.682-2.123 5.172 5.172 0 01.061-1.54c.057-.274.12-.548.188-.82a.557.557 0 00.015-.252 1.14 1.14 0 01.15-.804c.099-.169.209-.332.33-.483.164-.204.391-.247.593-.127a.677.677 0 01.182.155c.147.181.29.366.423.56.187.275.186.59-.019.876-.086.129-.153.27-.2.417-.034.09-.052.187-.08.28-.046.162-.072.312.035.457.048.065.047.176.056.269.007.083-.002.17-.005.257a3.86 3.86 0 00.372 1.766c.125.264.261.523.406.775.261.453.606.83 1.02 1.132.244.18.496.345.789.547z" fill="#000"/></svg>