<svg width="225" height="156" fill="none" xmlns="http://www.w3.org/2000/svg"><path d="M133.699.127c-2.124-.03-3.76.304-5.251 1.014-4.137 1.972-4.654 5.909-3.159 8.81.119.23.251.463.42.657.949 1.086 1.669 2.327 2.418 3.55 1.368 2.23 2.903 4.327 4.806 6.14 2.26 2.153 4.875 3.6 7.996 4.057.658.096 1.263.32 1.764.768.121.107.199.277.258.435.083.226-.233.577-.445.5a3.29 3.29 0 01-.585-.275 3.271 3.271 0 00-1.213-.436c-4.002-.644-7.163-2.736-9.82-5.706-1.367-1.53-2.533-3.2-3.614-4.935-.208-.331-.461-.647-.598-1.007-.437-1.153-1.389-1.153-2.352-1.064-.265.024-.551.25-.747.46-.336.355-.484.819-.506 1.31-.065 1.442.012 2.862.563 4.227.693 1.712 1.685 3.23 2.919 4.595 1.375 1.519 2.907 2.868 4.552 4.084.451.335.935.64 1.439.887 2.105 1.03 4.212 2.057 6.345 3.029.743.338 1.548.561 2.343.762 1.415.36 2.569-.13 3.448-1.253.454-.58.832-1.22 1.246-1.83a12.832 12.832 0 012.94-3.11c1.538-1.158 3.282-1.763 5.175-1.932a6.726 6.726 0 011.806.103c.75.14 1.261-.156 1.701-.694.028-.033.057-.066.08-.103 1.245-1.882 2.491-3.763 3.73-5.65.165-.253.288-.534.421-.807.091-.19.011-.345-.168-.421-.958-.41-1.96-.333-2.949-.198-.949.128-1.861.418-2.753.77-.972.382-1.975.623-3.012.787a8.942 8.942 0 01-3.995-.253c-1.784-.534-3.53-1.2-5.291-1.817-.161-.057-.312-.152-.46-.242-.202-.122-.305-.398-.209-.552a.494.494 0 01.561-.227c.379.089.752.207 1.121.334 1.149.397 2.3.787 3.438 1.211 2.385.887 4.749.836 7.127-.05.93-.347 1.895-.615 2.861-.855 1.286-.32 2.58-.316 3.859.095.348.113.441.017.538-.338.331-1.214.127-2.417-.068-3.616-.086-.527-.404-.965-.783-1.33-1.742-1.668-3.61-3.125-6.049-3.653-1.483-.32-2.956-.69-4.434-1.043a22.699 22.699 0 01-4.893-1.744c-.854-.425-1.725-.82-2.592-1.219-2.431-1.122-5.015-1.664-7.652-2-.902-.114-1.81-.18-2.277-.225zm59.289 47.466c-.084-1.307-.175-2.303-.205-3.298-.024-.736-.026-1.482.065-2.21.181-1.448-.172-2.753-.897-3.985-.399-.68-.878-1.303-1.473-1.817-2.319-1.999-4.157-4.43-6.094-6.773-1.495-1.808-2.945-3.653-4.474-5.433-2.446-2.853-5.232-5.332-8.443-7.305-.846-.52-1.76-.935-2.659-1.365-.921-.44-1.917-.515-2.923-.545a2.475 2.475 0 00-1.882.743c-.461.457-.913.938-1.282 1.468a20.858 20.858 0 00-1.426 2.332 33.852 33.852 0 01-2.199 3.686c-.604.872-1.048 1.796-.9 2.908.022.169-.005.348-.029.519-.378 2.786.173 5.443 1.132 8.04.349.943.885 1.79 1.485 2.59 2.125 2.833 4.61 5.317 7.379 7.511 1.743 1.38 3.706 2.417 5.687 3.416 1.123.567 2.24 1.15 3.351 1.738.692.368 1.341.798 1.895 1.367.138.144.379.31.544.283.499-.08.942.143 1.408.174.775.052 1.564.072 2.333-.016.77-.089 1.54-.247 2.276-.536.358-.142.755-.183 1.134-.275.168-.041.23-.28.103-.416-.209-.221-.408-.456-.645-.643-.615-.483-1.223-.977-1.875-1.406-1.524-1.001-3.075-1.963-4.612-2.946-2.491-1.592-4.931-3.253-7.171-5.193a34.116 34.116 0 01-6.541-7.564c-1.128-1.776-1.962-3.662-2.394-5.735-.311-1.488-.622-2.973-.707-4.495a3.363 3.363 0 01.056-.901c.03-.134.213-.307.344-.323.122-.014.355.13.387.247.116.415.208.846.235 1.275.11 1.701.483 3.351.903 4.991.458 1.786 1.331 3.387 2.347 4.916 2.187 3.29 4.921 6.06 8.054 8.453 2.35 1.796 4.853 3.363 7.355 4.935a89.963 89.963 0 013.464 2.32c.933.65 1.769 1.41 2.344 2.411.197.343.474.48.85.488.304.006.609.046.911.035 1.187-.04 2.174-.765 2.501-1.925.182-.659.227-1.358.288-1.74zM94.92 18.85c-.01.128-.061.267-.024.38.273.822.531 1.652.858 2.455a7.332 7.332 0 001.942 2.74c.23.201.455.406.67.62 1.774 1.753 3.965 2.581 6.384 2.965 2.075.329 4.161.327 6.238.185 1.949-.131 3.86-.57 5.741-1.104.249-.07.484-.194.73-.277.61-.207.996-.616 1.309-1.185 1.248-2.27 2.105-4.664 2.391-7.246.052-.47.066-.964-.018-1.426-.205-1.117-.175-2.24-.22-3.363-.001-.015-.152-.058-.204-.031-.931.47-1.881.888-2.886 1.182-1.596.467-3.237.612-4.88.74-2.423.19-4.85.328-7.271.534-.817.07-1.619.29-2.434.411a10.68 10.68 0 01-1.283.087c-.15.004-.241-.314-.123-.418.161-.14.319-.313.51-.38.53-.185 1.068-.385 1.62-.467a62.242 62.242 0 016.22-.585c2.295-.106 4.601-.222 6.849-.756 1.445-.344 2.814-.892 3.996-1.827.652-.515 1.254-1.077 1.564-1.88.046-.12.093-.254.18-.345.675-.725.614-1.603.47-2.463a12.121 12.121 0 00-.564-2.136c-.387-1.06-.869-2.082-1.282-3.132-.269-.684-.682-.978-1.465-1.001-2.703-.078-5.382.074-8.041.549-3.164.565-6.294 1.278-9.331 2.343-.981.345-1.94.754-2.916 1.12-.197.074-.416.095-.627.118-.134.014-.287-.29-.204-.406.1-.134.198-.295.339-.369.65-.347 1.293-.712 1.975-.99 1.891-.771 3.857-1.316 5.836-1.81.882-.218 1.772-.398 2.656-.6.074-.017.141-.064.21-.098-.082-.023-.165-.05-.247-.07a.449.449 0 00-.13-.006c-2.818.209-5.618.529-8.32 1.414-1.609.527-3.2 1.099-4.725 1.847-1.409.694-2.749 1.493-3.94 2.52-.813.698-1.702 1.185-2.785 1.297a4.88 4.88 0 00-1.016.227c-1.083.357-1.469 1.455-.825 2.405.266.39.603.743.954 1.062.612.554 1.254 1.074 1.893 1.595 1.013.829 1.952 1.723 2.689 2.819.213.318.491.618.802.841 2.3 1.646 4.677 3.151 7.354 4.14 1.725.638 3.512.954 5.326 1.162.905.104 1.816.163 2.726.212 1.829.096 3.642-.07 5.45-.341.554-.084 1.118-.114 1.679-.143.089-.004.24.123.264.216.024.095-.044.255-.125.325a1.223 1.223 0 01-.454.241c-.501.139-1.002.302-1.514.37-1.806.239-3.611.516-5.443.281a10.91 10.91 0 00-1.171-.076c-4.087-.096-7.866-1.232-11.35-3.363-.519-.317-1.029-.649-1.553-.955-.139-.08-.318-.089-.48-.13l.026-.024zm-3.654 14.887c-.359-.105-.556.182-.795.345-1.26.862-2.574 1.621-4.04 2.072a26.22 26.22 0 01-2.396.59 3.142 3.142 0 01-1.037.026c-1.772-.236-3.552-.225-5.333-.248-.78-.01-1.56-.096-2.337-.164a1.058 1.058 0 01-.477-.166.436.436 0 01-.169-.321c.002-.108.09-.263.183-.307.189-.09.409-.175.613-.168 2.039.066 4.077.151 6.117.233.26.01.527.002.778.06 1.058.235 2.076.014 3.081-.27a13.525 13.525 0 003.444-1.52c1.564-.965 2.941-2.153 4.222-3.46.373-.38.67-.795.729-1.347.228-2.185.152-4.337-.668-6.412-.139-.352-.254-.421-.58-.252-1.853.953-3.711 1.894-5.542 2.886a71.296 71.296 0 00-6.981 4.309 9.318 9.318 0 01-1.119.654c-.078.041-.269-.027-.335-.106-.062-.077-.082-.263-.03-.348.107-.183.253-.356.42-.489.712-.567 1.407-1.162 2.165-1.665 3.186-2.122 6.54-3.947 9.958-5.664.233-.116.472-.221.704-.338.86-.426.86-.427.493-1.257a13.4 13.4 0 00-1.73-2.901 57.106 57.106 0 00-1.73-2.12c-.577-.661-1.076-1.361-1.392-2.185a3.919 3.919 0 00-.222-.472c-.151-.279-.339-.377-.64-.273-.738.255-1.485.494-2.194.814-2.102.95-4.086 2.115-6.008 3.387a44.466 44.466 0 00-6.576 5.32c-.4.392-.84.749-1.278 1.1-.071.057-.271.044-.342-.018-.076-.065-.133-.261-.09-.338.17-.301.366-.586.588-.85 1.221-1.423 2.592-2.689 4.07-3.838a50.096 50.096 0 018.007-5.106c1.045-.534 2.115-1.01 3.238-1.357.4-.123.45-.288.199-.64-.59-.825-1.287-1.52-2.262-1.895-.351-.136-.643-.172-.973.06-1.822 1.276-3.85 2.184-5.817 3.194a41.08 41.08 0 00-6.253 3.985c-.686.528-1.303 1.15-1.916 1.764a27.75 27.75 0 00-4.731 6.352 11.709 11.709 0 00-1.406 4.707c-.09 1.12-.599 1.868-1.535 2.397-.377.213-.751.436-1.122.662-.492.3-.892.69-1.145 1.216-.416.86-.013 1.59.931 1.672.302.025.608.017.912.013 3.62-.055 7.048.837 10.394 2.111 1.91.729 3.707 1.697 5.5 2.674.457.248.93.468 1.407.675.62.27 1.264.313 1.908.088.86-.3 1.732-.571 2.564-.939.951-.42 1.864-.927 2.791-1.404 2.066-1.065 3.839-2.529 5.512-4.12.117-.11.173-.283.256-.426l.019.018h-.002zm92.839 121.291c.521 0 1.043.007 1.563-.001 2.62-.041 4.898-.952 6.916-2.617a57.795 57.795 0 014.148-3.146c2.199-1.501 4.686-2.229 7.332-2.398 1.955-.125 3.902.035 5.851.196 2.252.188 4.513.195 6.769.095.829-.036 1.63-.227 2.367-.641.302-.169.629-.292.942-.442 1.144-.554 2.323-.657 3.543-.296.123.037.254.064.381.067.078.002.215-.042.223-.083.02-.112.025-.266-.038-.345a3.079 3.079 0 00-.553-.547c-.487-.361-.975-.729-1.5-1.028-.368-.21-.786-.402-1.237-.173-.948-.075-1.9-.124-2.847-.229-1.983-.22-3.962-.475-5.944-.702-4.058-.464-8.08-1.097-11.968-2.405-1.611-.542-3.126-1.288-4.599-2.127-2.429-1.385-5.021-2.354-7.71-3.088-1.327-.363-2.679-.347-4.007-.145-1.371.208-2.706.608-3.953 1.255-1.817.942-3.317 2.217-4.291 4.047a78.576 78.576 0 00-1.133 2.198c-.557 1.129-1.128 2.252-1.636 3.401a16.097 16.097 0 00-.83 2.323c-.448 1.679.144 3.084 1.332 4.25.327.321.798.523 1.233.705 1.243.515 2.519.926 3.841 1.203 1.917.4 3.834.757 5.805.673zM48.485 56.32c.088 1.676.133 2.98.518 4.237.154.499.102.92-.185 1.351a21.32 21.32 0 00-.942 1.56c-.318.58-.487 1.204-.433 1.878.057.712.362 1.109 1.046 1.323.638.202 1.286.15 1.933.06.946-.13 1.89-.264 2.835-.393.795-.108 1.507-.4 2.102-.947.575-.53 1.134-1.079 1.723-1.592.718-.628 1.435-1.266 2.201-1.832 1.84-1.361 3.909-2.055 6.21-1.96.961.04 1.912-.023 2.854-.198 1.721-.32 3.23-1.006 4.224-2.54 1.286-1.989 2.143-4.16 2.752-6.438.02-.075-.023-.166-.037-.249-.09.037-.224.05-.263.116-1.329 2.264-3.376 3.711-5.634 4.89-1.735.904-3.449 1.837-5.075 2.924a4.74 4.74 0 01-.568.311c-.213.103-.489.041-.575-.119-.123-.226-.047-.439.118-.589.321-.287.646-.588 1.013-.81a161.59 161.59 0 013.488-2.033c.413-.237.862-.418 1.268-.665.852-.52 1.724-1.018 2.52-1.615 2.73-2.05 3.921-4.886 4.088-8.221.021-.401-.07-.77-.26-1.125-.409-.773-.884-1.503-1.526-2.097-.606-.558-1.254-1.071-1.899-1.585-.119-.096-.308-.103-.464-.152-.029.166-.069.332-.082.5-.012.13.01.26.014.39.05 1.298-.308 2.484-.947 3.603-.656 1.143-1.501 2.122-2.473 3.005-1.318 1.198-2.59 2.44-3.75 3.8-1.794 2.1-3.188 4.437-4.309 6.952a7.05 7.05 0 01-.57 1.008c-.05.078-.266.134-.341.09a.785.785 0 01-.308-.374c-.041-.103.008-.258.051-.376.216-.569.41-1.147.67-1.694 1.41-2.968 3.253-5.64 5.59-7.956.957-.948 1.933-1.876 2.902-2.812a9.128 9.128 0 001.908-2.619c.631-1.31.737-2.66.306-4.054-.099-.316-.26-.542-.563-.667-1-.418-2-.83-2.997-1.255-.443-.19-.72.004-1.008.325a34.887 34.887 0 00-6.422 10.205c-.839 2.048-1.652 4.107-2.263 6.24a3.46 3.46 0 01-.378.818c-.049.082-.236.137-.341.115a.435.435 0 01-.274-.244 1.043 1.043 0 01-.043-.507c.07-.382.151-.768.272-1.139 1.203-3.68 2.596-7.277 4.576-10.622a31.504 31.504 0 012.698-3.832c.411-.505.832-1.003 1.247-1.506.15-.18.121-.314-.087-.377-1.207-.365-2.444-.588-3.69-.763-.53-.075-.93.119-1.255.52-.493.605-1.006 1.196-1.483 1.815-2.263 2.932-3.757 6.24-4.69 9.805-.474 1.803-.862 3.63-1.297 5.443-.08.334-.174.668-.293.991a.32.32 0 01-.423.193c-.107-.041-.246-.163-.257-.26-.03-.297-.05-.608.004-.9.206-1.108.398-2.224.68-3.313.418-1.64.883-3.267 1.395-4.88 1.038-3.224 2.761-6.076 4.875-8.703.16-.2.308-.41.441-.628.019-.032-.078-.193-.114-.19-.556.041-1.119.06-1.665.17-.23.047-.458.257-.617.452-.442.534-.878 1.08-1.263 1.655-1.813 2.722-3.292 5.615-4.38 8.704-.634 1.8-1.333 3.587-1.614 5.486-.214 1.417-.343 2.843-.464 3.896zm91.541 67.59c1.281-.125 2.77.111 4.2.695.289.117.53.065.683-.179.979-1.556 2.38-2.758 3.511-4.189.422-.535 1.022-.931 1.559-1.37.371-.31.844-.471 1.327-.453 1.017.035 1.843-.418 2.584-1.052.296-.252.541-.563.821-.834.967-.935 2.055-1.436 3.427-.966.41.141.841.214 1.257.333.227.065.367.322.3.5a.55.55 0 01-.483.376c-.125.014-.257-.017-.383-.045-.381-.083-.761-.175-1.139-.265-.579-.139-1.154-.102-1.614.275-.803.657-1.562 1.368-2.33 2.066-.023.02.01.152.053.183.105.074.226.129.346.175.607.232 1.219.45 1.824.69.222.088.392.088.585-.081.325-.284.666-.556 1.021-.799 1.538-1.05 3.457-.747 4.432.808.59.94 1.232 1.908 1.211 3.108-.005.279.126.498.345.666.07.052.142.105.199.168.695.775 1.532 1.225 2.597 1.301.412.028.806.29 1.208.444.338.128.544.004.713-.342.212-.433.131-.835-.025-1.256-.619-1.684-1.469-3.238-2.595-4.639-.054-.068-.106-.139-.169-.197-1.238-1.142-1.817-2.619-2.143-4.222a24.706 24.706 0 01-.166-.895c-.29-1.666-1.154-2.976-2.468-4.009a15.892 15.892 0 00-3.57-2.121c-2.601-1.117-5.274-1.992-8.065-2.484-1.627-.286-3.271-.48-4.92-.43-.945.03-1.886.262-2.825.431-.425.077-.838.218-1.254.342-2.243.669-4.484 1.348-6.759 1.899a9.724 9.724 0 00-1.476.503c-.631.269-1.037.448-.128 1.081.382.267.673.67.978 1.035.249.298.461.63.681.952.885 1.294 2.141 1.848 3.674 1.854.566.002 1.13-.016 1.693.015 1.618.091 3.021.737 4.261 1.749.26.212.474.507.634.803.091.167.051.417.029.627-.017.176-.4.308-.537.197a1.533 1.533 0 01-.271-.269c-.902-1.242-2.222-1.767-3.648-2.05-.586-.117-1.207-.078-1.812-.071-1.985.026-3.672-.565-4.841-2.273-.22-.322-.429-.656-.682-.952-.279-.329-.599-.623-.911-.923-.053-.051-.172-.084-.238-.061-.058.021-.116.128-.124.202-.137 1.189.09 2.336.446 3.459.195.618.46 1.216.699 1.821.159.403.327.801.486 1.205.131.33.142.658.055 1.015-.602 2.523.811 4.474 2.565 5.471a7.432 7.432 0 003.472.974c.483.019.961.004 1.7.004z" fill="#000"/><path d="M169.687 148.508c1.263.008 1.749-.555 1.527-1.724-.104-.552-.277-1.092-.415-1.638-.138-.546-.27-1.093-.407-1.639-.131-.527-.036-1.032.133-1.534.087-.262.238-.453.5-.558.202-.081.398-.173.593-.268.843-.403 1.633-1.957 1.049-3.039-.225-.416-.454-.843-.754-1.206-1.363-1.647-2.871-3.136-4.74-4.22-.9-.523-1.788-1.066-2.683-1.598-.186-.112-.387-.202-.559-.331-1.073-.81-2.157-1.606-3.199-2.452-1.255-1.02-2.213-2.322-3.244-3.55-.642-.765-1.264-1.547-1.931-2.288a4.994 4.994 0 00-2.53-1.52c-.6-.154-1.221-.221-1.803-.043-1.354.413-2.531 1.123-3.363 2.307-.274.391-.53.795-.777 1.203-.698 1.158-.968 2.404-.74 3.745.037.213.092.425.135.636.155.767.026 1.454-.505 2.066-1.022 1.181-1.152 2.53-.852 4.03.343 1.703 1.205 3.044 2.479 4.165a24.088 24.088 0 007.43 4.472c2.069.784 4.164 1.486 6.306 2.038 1.561.403 3.054.975 4.515 1.642a43.89 43.89 0 002.147.933c.568.221 1.146.424 1.688.371zm8.483-20.876c1.351.098 2.571-.233 3.763-.635 1.362-.457 2.733-.831 4.161-1.02.771-.101 1.534-.292 2.288-.487 1.415-.367 2.831-.322 4.263-.129 1.889.256 3.78.526 5.679.705 3.201.302 6.369.768 9.47 1.64.96.27 1.933.498 2.882.799 1.722.547 3.253 1.423 4.489 2.768.06.064.114.156.187.176.156.043.338.099.483.057.256-.075.266-.301.206-.532-.167-.628-.34-1.254-.496-1.885-.332-1.347-1.106-2.368-2.34-2.969-1.089-.532-2.205-1.032-3.356-1.403-2.515-.813-5.063-1.528-7.594-2.295-1.494-.453-2.989-.899-4.469-1.395-2.523-.844-4.875-2.048-7.106-3.493-1.022-.66-2.052-1.305-3.08-1.953-2.097-1.323-4.318-2.41-6.578-3.421-1.876-.839-3.856-1.305-5.897-1.521-.518-.055-1.033-.128-1.552-.168-1.276-.098-2.512.158-3.717.524-1.201.366-2.377.82-3.56 1.248-.243.093-.476.21-.695.35-.395.244-.634.573-.567 1.077.126.944.198 1.891.497 2.811.333 1.021.974 1.614 2.045 1.727 1.759.186 2.949 1.174 3.732 2.694.296.575.514 1.194.754 1.797.241.604.463 1.216.697 1.823.782 2.029 2.413 2.853 4.437 3.102.342.045.695.008.974.008zM47.411 84.304l-.31 1.256c-.606 2.45-.337 4.746 1.272 6.77.564.71 1.208 1.365 1.85 2.01 1.103 1.107 2.24 2.182 3.351 3.28 1.553 1.533 2.88 3.253 4.021 5.105.613.993 1.068 2.082 1.597 3.126.275.54.54 1.087.848 1.609.29.491.762.685 1.327.667.622-.018 1.207-.166 1.726-.511 1.257-.835 2.635-1.314 4.141-1.401.73-.042 1.03-.555 1.294-1.115.032-.068.013-.174-.013-.252a.619.619 0 00-.136-.218c-1.935-2.129-3.401-4.608-5.152-6.876-1.671-2.167-3.341-4.332-5.126-6.409-1.527-1.778-3.03-3.579-4.547-5.365-.792-.933-1.686-1.75-2.735-2.392a2.57 2.57 0 00-1.872-.349c-.287.052-.562.4-.826.18-.16-.135-.113-.494-.224-.72-.224-.46-.855-.75-1.457-.623a6.366 6.366 0 00-1.473.497c-.739.364-1.457.773-2.155 1.211-1.73 1.083-3.43 2.206-5.013 3.504-1.712 1.404-3.492 2.723-5.118 4.234a62.686 62.686 0 00-5.952 6.373c-.302.37-.561.772-.773 1.2-.397.81-.24 1.383.475 1.934.654.503 1.321.986 1.97 1.495 1.102.86 2.28 1.03 3.526.374.573-.301 1.15-.623 1.652-1.027 1.317-1.064 2.63-2.137 3.878-3.28 2.189-2.005 3.996-4.344 5.633-6.808.864-1.299 1.62-2.672 2.377-4.04.377-.678.684-1.403.952-2.134.205-.557.488-1.004 1.019-1.277l.063-.074a.732.732 0 01-.09.046zm17.394-22.237c-1.876-.028-3.453.691-4.773 2.004-.339.335-.637.71-.95 1.07-1.114 1.283-2.326 2.458-3.766 3.38-.949.608-1.9 1.214-2.848 1.823-.366.234-.493.598-.346 1.009a2.5 2.5 0 00.23.463 851.524 851.524 0 002.038 3.33 14.67 14.67 0 003.033 3.552c1.225 1.034 2.49 2.025 3.739 3.034.101.082.215.148.315.23.735.599 1.541.75 2.437.415.366-.136.745-.233 1.107-.38 3.217-1.3 6.534-2.321 9.804-3.47 1.635-.574 3.229-1.265 4.921-1.67.084-.02.164-.057.244-.09.282-.116.385-.34.24-.626-.587-1.16-1.117-2.357-1.796-3.461-2.1-3.408-4.864-6.206-8.107-8.535-1.064-.763-2.23-1.333-3.47-1.76-.666-.227-1.339-.354-2.052-.318zm93.18 5.2c-.063 1.387.396 2.777 1.152 4.074.327.564.722 1.088 1.373 1.339.319.123.65-.057.644-.396-.006-.252-.017-.534-.129-.75-1.014-1.982-.903-4.044-.374-6.097.595-2.313 1.912-4.166 3.906-5.51.323-.218.661-.42 1.011-.592 1.656-.818 3.267-.714 4.83.264a10.89 10.89 0 012.382 2.01c.895 1.006 1.78 2.021 2.646 3.052.825.98 1.822 1.732 2.927 2.357.964.545 2.011.789 3.11.846 3.117.16 5.809-.883 8.105-2.941 2.73-2.447 4.246-5.532 4.767-9.158.209-1.446.113-2.856-.087-4.277-.078-.564-.229-1.106-.681-1.508-.243-.216-.67-.178-.782.099-.829 2.053-2.5 3.011-4.528 3.513-1.33.33-2.672.26-4.013.104-2.371-.277-4.734-.626-7.11-.844-3.106-.284-6.164-.006-9.079 1.202-4.098 1.698-7.183 4.493-9.085 8.532-.675 1.433-.995 2.954-.985 4.68zM85.5 110.34c-.014-.071-.064-.413-.146-.747-.229-.933-.602-1.811-1.064-2.651-.145-.263-.124-.484.078-.706 1.877-2.071 3.315-4.46 4.869-6.761.6-.891.992-1.925 1.465-2.9.17-.352.306-.72.448-1.083.43-1.109 1.219-1.882 2.262-2.416.308-.16.622-.31.923-.483.599-.344.676-.605.292-1.137-.305-.42-.644-.819-.996-1.2-.769-.827-1.604-1.596-2.317-2.465-.78-.948-1.754-1.681-2.607-2.543-.185-.187-.489-.2-.718-.014-.372.297-.754.596-1.064.954-.92 1.064-1.995 1.91-3.218 2.61-.631.362-1.166.9-1.717 1.388a596.226 596.226 0 00-5.238 4.701c-1.06.963-2.096 1.955-3.14 2.938a3.77 3.77 0 00-.444.476c-.382.519-.52 1.03-.185 1.679 1.316 2.553 2.704 5.056 4.677 7.183.857.922 1.697 1.861 2.583 2.755.456.46.977.863 1.5 1.249.597.443 1.284.715 1.992.944 1.08.349 1.655-.152 1.766-1.234.007-.086 0-.173 0-.537H85.5zm-5.231-32.872c-.378.083-.77.129-1.134.252-.656.22-1.303.473-1.944.734-3.139 1.272-6.179 2.754-9.172 4.334-1.764.93-3.54 1.837-5.312 2.754-.116.06-.24.104-.35.17-.642.378-.801 1.181-.358 1.789.051.068.108.136.174.195.952.846 1.609 1.924 2.337 2.95 1.309 1.84 2.965 3.26 5.036 4.203.944.429 1.826.465 2.721-.085.443-.273.912-.505 1.348-.787 2.04-1.321 4.064-2.667 6.11-3.977a108.657 108.657 0 014.104-2.515c.692-.401 1.278-.88 1.73-1.54.489-.713.92-1.473 1.637-2.006.187-.138.224-.374.158-.595a5.007 5.007 0 00-.314-.838 1.896 1.896 0 00-.41-.503c-1.31-1.203-2.535-2.5-3.977-3.553a8.137 8.137 0 00-.994-.62 2.99 2.99 0 00-1.39-.362z" fill="#000"/><path d="M97.315 114.973c-.076-.399-.142-1.005-.312-1.581-.195-.66-.169-1.278.105-1.897.228-.515.431-1.044.692-1.544 2.03-3.902 3.445-8.044 4.785-12.216.041-.123.09-.245.118-.37.079-.367.002-.695-.298-.94-1.112-.903-2.247-1.775-3.593-2.319-.564-.228-1.141-.394-1.764-.403-.34-.007-.678-.107-1.017-.167-.298-.052-.594-.135-.893-.151-.41-.025-.767.118-1.006.48-.095.145-.187.292-.277.441-2.255 3.654-4.507 7.312-6.768 10.962-.386.624-.76 1.271-1.235 1.825-.41.476-.405.931-.206 1.438.11.28.275.541.434.799 1.9 3.09 4.485 5.497 7.473 7.504a5.527 5.527 0 001.779.78c.95.231 1.633-.183 1.839-1.138.09-.421.086-.862.144-1.503zm5.69 10.866c.01-.709-.178-1.375-.448-2.019-.082-.199-.168-.423-.322-.557-.775-.686-1.412-1.525-2.355-2.026-1.459-.776-2.922-1.545-4.52-1.99-2.608-.729-5.028-1.903-7.444-3.088-2.382-1.166-4.658-2.516-6.86-3.999-1.112-.75-2.3-1.396-3.476-2.044a85.252 85.252 0 00-3.701-1.915c-.581-.283-1.202-.49-1.82-.685-.632-.2-1.273-.157-1.93-.041-.597.104-1.048.376-1.437.812-.836.931-1.051 2.079-1.085 3.264-.016.532.252 1.025.682 1.358.511.399 1.03.807 1.602 1.109 2.454 1.306 4.974 2.462 7.672 3.202 1.548.425 3.075.924 4.604 1.414 2.994.958 5.758 2.421 8.503 3.916 1.297.705 2.59 1.421 3.865 2.164.787.459 1.54.975 2.3 1.478.725.479 1.425.995 2.159 1.458a5.01 5.01 0 001.174.546c1.447.451 2.734-.453 2.837-1.967.007-.129 0-.259 0-.39zm16.598-9.8a7.185 7.185 0 00.604 2.926c.311.707.783 1.245 1.487 1.569 1.105.508 2.221.955 3.451 1.115 2.242.292 4.446.757 6.539 1.657.318.136.652.244.988.325.156.038.341-.001.504-.041.182-.045.339-.381.256-.534a4.573 4.573 0 00-.345-.547c-1.12-1.487-1.826-3.137-1.99-5.004-.093-1.053-.417-2.034-.888-2.975-.698-1.392-.944-2.872-.892-4.421.028-.817.317-1.526.76-2.181.467-.691 1.181-.983 1.976-1.135.852-.162 1.693-.389 2.549-.522.589-.091 1.051-.39 1.513-.712.286-.199.242-.569-.083-.741a2.84 2.84 0 00-.478-.196c-1.16-.377-2.346-.647-3.558-.749-1.385-.115-2.773-.162-4.158-.252-.519-.034-1.035-.099-1.552-.16-.91-.108-1.807-.121-2.715.099-1.018.247-1.591.834-1.708 1.866-.063.562-.181 1.128-.148 1.684.077 1.3-.296 2.483-.749 3.667-.37.971-.733 1.951-1.002 2.954-.202.749-.247 1.538-.361 2.308zm72.25 9.986c-1.534.017-3.026.284-4.507.627-2.194.512-4.385 1.04-6.585 1.533-.758.17-1.533.296-2.307.374-1.473.149-2.841-.189-4.095-.99-.511-.326-1.022-.662-1.567-.924-.465-.222-.972-.365-1.472-.499-.195-.053-.43-.012-.635.032-.309.065-.48.468-.314.724.117.18.249.359.407.502.709.638 1.413 1.286 2.151 1.889.981.801 2.161 1.076 3.39 1.173 1.081.087 2.163.161 3.245.227 1.515.09 3.021.269 4.526.481 1.072.153 2.155.238 3.236.315 1.731.123 3.465.199 5.196.324 1.686.121 3.369.301 5.054.41 2.251.147 4.504.256 6.756.372 1.689.087 3.382.12 5.068.255 1.3.104 2.566.398 3.729 1.045.567.316 1.16.585 1.751.852.091.041.282.001.349-.072.103-.117.207-.304.187-.441-.032-.202-.148-.405-.272-.576-.484-.668-.961-1.343-1.483-1.98-1.036-1.261-2.271-2.214-3.89-2.67-3.09-.87-6.196-1.672-9.377-2.112-1.932-.268-3.88-.42-5.82-.617-.908-.091-1.815-.17-2.721-.254zM51.911 120.03c.055.648.226 1.227.555 1.75.622.989 1.257 1.971 1.89 2.954.07.11.151.214.236.31.443.498.915.627 1.51.326a8.09 8.09 0 001.31-.84c.683-.534 1.321-1.125 1.999-1.665 1.016-.81 2.051-1.599 3.079-2.397.546-.425 1.095-.849 1.64-1.279 1.185-.933 1.815-2.168 2.05-3.648.188-1.197.432-2.386.682-3.571.226-1.074.229-2.152.125-3.235-.041-.427-.265-.651-.712-.792-.513-.163-.862-.089-1.309.202-2.066 1.35-4.167 2.646-6.25 3.969a9.03 9.03 0 00-1.057.756 246.798 246.798 0 00-3.821 3.339c-.999.893-1.673 1.983-1.855 3.337-.023.172-.051.342-.072.484zm53.484 4.717c.153 1.027.302 2.015.71 2.935.14.313.305.632.528.888.511.587 1.029 1.177 1.61 1.694 1.002.893 2.056 1.729 3.083 2.594 1.892 1.587 3.781 3.182 5.675 4.768.499.417 1.001.834 1.535 1.203.35.241.752.417 1.148.583.379.157.652.059.898-.27.129-.174.249-.357.341-.552.279-.592.726-.95 1.367-1.091.293-.064.584-.17.856-.299.323-.155.473-.526.385-.882-.19-.765-.479-1.499-1.023-2.078a18.703 18.703 0 00-1.789-1.693c-.604-.492-1.269-.909-1.924-1.334-.702-.456-1.266-1.035-1.749-1.718a125.928 125.928 0 00-2.753-3.786c-1.215-1.591-2.589-3.032-4.216-4.218-.313-.228-.584-.515-.878-.772-.22-.194-.464-.217-.712-.054-.544.356-1.105.689-1.622 1.08-.997.759-1.473 1.79-1.47 3.002zm90.106 31.128c.447-.076.96-.148 1.467-.253 2.206-.448 4.406-.923 6.646-1.196 1.676-.205 3.334-.546 5.004-.809.983-.154 1.969-.316 2.96-.397 2.836-.232 5.537-.991 8.17-2.021.887-.347 1.75-.753 2.632-1.109.813-.326.94-1.087 1.093-1.781.11-.497-.235-.898-.631-1.205a.41.41 0 00-.232-.1.41.41 0 00-.246.059c-.228.126-.453.257-.686.371-2.033 1.003-4.182 1.375-6.437 1.198a36.438 36.438 0 00-2.335-.126c-1.346-.022-2.69.007-4.036-.013-.603-.01-1.205-.09-1.808-.135-.172-.012-.344-.029-.515-.023-1.126.043-2.252.123-3.379.13-2.579.016-4.835.886-6.826 2.493-.943.763-1.885 1.531-2.813 2.312a4.538 4.538 0 00-.713.753c-.276.371-.19.859.155 1.173.368.332.811.505 1.288.578.386.058.779.065 1.242.101zm-96.454-43.339a2.53 2.53 0 00.435 1.623c.888 1.344 1.859 2.626 3.032 3.732.433.408.985.7 1.511.999.311.178.756-.087.776-.441a5.478 5.478 0 00-.053-1.032c-.08-.559-.199-1.11-.296-1.664-.272-1.546-.13-3.047.672-4.411 1.058-1.801 1.874-3.717 2.76-5.599.738-1.566 1.343-3.197 2.004-4.8.049-.119.087-.246.12-.369.209-.817.122-1.515-.613-2.09-.922-.72-1.78-1.523-2.679-2.273a3.455 3.455 0 00-.773-.472c-.757-.344-1.33-.188-1.815.49-.33.463-.524.989-.659 1.545a174.628 174.628 0 01-.996 3.903c-.112.418-.28.821-.425 1.229-.491 1.389-.988 2.777-1.47 4.169-.394 1.147-.78 2.296-1.158 3.449-.22.657-.431 1.321-.373 2.012zm53.81 38.598c.314-.079.662-.125.976-.253.617-.251.796-.981.379-1.51a2.308 2.308 0 00-.579-.514c-.477-.3-.966-.581-1.465-.843-3.766-1.982-7.694-3.587-11.709-4.989a162.365 162.365 0 01-3.297-1.203c-1.831-.682-3.728-1.138-5.618-1.612-.705-.177-1.438-.245-2.159-.357-1.205-.188-2.384-.458-3.435-1.112-.836-.518-1.717-.831-2.712-.7a3.719 3.719 0 00-.877.212c-.788.308-.982.652-.926 1.5.019.273.1.513.305.693.391.343.772.701 1.186 1.012 2.368 1.778 4.992 2.946 7.956 3.282.172.02.345.027.52.033 4.398.171 8.544 1.358 12.5 3.218 2.518 1.183 5.066 2.253 7.774 2.922.374.09.76.142 1.181.221zm-42.52-30.847c.296.44.572.932.933 1.353a7.1 7.1 0 001.157 1.045c1.307.962 2.358 2.169 3.377 3.412.632.772 1.262 1.546 1.92 2.294.934 1.061 2.083 1.828 3.388 2.356.843.341 1.688.681 2.551.964 2.146.706 4.269 1.453 6.117 2.808.271.198.548.113.6-.188.135-.763.523-1.356 1.088-1.872.217-.196.363-.48.509-.742.202-.36.196-.727.041-1.122-.309-.793-.761-1.427-1.515-1.878a103.895 103.895 0 00-6.956-3.808c-1.667-.832-3.349-1.638-5.018-2.463-1.989-.983-4.043-1.792-6.214-2.26-.583-.127-1.197-.101-1.798-.132-.042-.002-.089.11-.18.233zm-60.72-47.052c.143 2.28.692 4.224 1.691 6.043.903 1.644 2.001 3.153 3.17 4.609 1.113 1.389 2.324 2.7 3.416 4.105 3.253 4.18 6.483 8.38 9.694 12.593 1.188 1.558 2.425 3.064 3.839 4.42.312.301.597.632.91.933.12.115.273.205.426.278.226.109.577-.142.538-.388a3.68 3.68 0 00-.167-.622c-.288-.818-.599-1.629-.875-2.45-.503-1.491-1.303-2.835-2.042-4.21-.289-.533-.61-1.05-.891-1.589a4.21 4.21 0 00-1.255-1.474c-.594-.438-1.17-.902-1.788-1.305-.95-.621-1.801-1.355-2.618-2.138-1.906-1.827-2.938-4.057-3.09-6.681-.036-.612-.242-1.095-.69-1.482a19.78 19.78 0 00-1.31-1.07c-1.027-.749-1.901-1.643-2.695-2.631-1.71-2.135-3.408-4.28-4.888-6.587-.185-.29-.43-.544-.667-.794-.195-.206-.54-.114-.634.158-.034.09-.06.185-.074.282z" fill="#000"/><path d="M112.007 113.485c.341 1.575.726 3.085 1.263 4.552.084.23.291.433.483.603a17.936 17.936 0 006.389 3.678 1 1 0 00.509.04c.153-.033.348-.135.404-.259.05-.111-.02-.341-.118-.438-.213-.212-.487-.363-.718-.559-.715-.609-1.191-1.363-1.362-2.301a8.143 8.143 0 00-.294-1.129c-.644-1.945-.626-3.857.373-5.675.817-1.489 1.079-3.102 1.247-4.75.044-.431.106-.861.187-1.286a3.073 3.073 0 01.819-1.596c.518-.538.48-.779-.078-1.277-.13-.116-.26-.235-.406-.326-.994-.621-1.982-1.252-2.993-1.843-.524-.305-.921-.221-1.221.301a12.829 12.829 0 00-.934 1.998c-.281.775-.507 1.57-.674 2.378-.371 1.805-1.102 3.467-1.913 5.105-.231.466-.463.937-.632 1.427-.157.446-.227.921-.331 1.357zM23.259 94.227c2.015-.038 3.874-.523 5.492-1.763a77.656 77.656 0 002.146-1.696c2.145-1.768 4.266-3.565 6.422-5.318 1.693-1.375 3.532-2.526 5.56-3.349.52-.211 1.067-.356 1.594-.55.305-.114.335-.539.073-.745-.286-.224-.603-.363-.966-.275-.758.185-1.523.348-2.263.59-3.632 1.19-7.15 2.674-10.652 4.196-2.706 1.176-5.439 2.287-8.151 3.448-.677.29-1.351.609-1.968 1.003-1.093.7-1.32 1.316-.977 2.543.263.943.81 1.624 1.882 1.716.604.054 1.205.133 1.808.2zm112.434 44.367c1.083.028 2.159.016 3.223-.276 1.28-.353 2.247-1.125 3.023-2.141.943-1.235.869-3.212-.127-4.506-1.37-1.778-3.055-3.037-5.362-3.358-.987-.137-1.953-.383-2.958-.224-.128.021-.262.022-.384.06-.603.197-.862.577-.549 1.185.079.155.149.313.23.468.432.825.416 1.637.046 2.497-.682 1.588-.661 1.598-2.008 3.14-.478.546-.454 1.513.088 1.991.803.709 1.74 1.134 2.827 1.162.649.014 1.3.002 1.951.002z" fill="#000"/><path d="M111.383 117.834c-.128-.688-.288-1.408-.392-2.135a23.788 23.788 0 01-.232-2.323c-.045-1.116.309-2.13.919-3.063.474-.725.973-1.445 1.355-2.216.594-1.203 1.178-2.421 1.616-3.686.386-1.107.358-2.307.346-3.479-.002-.231-.148-.462-.374-.47-.561-.021-.957-.369-1.408-.616-.227-.125-.455-.258-.7-.34-.76-.256-1.235-.076-1.648.603-.861 1.419-1.392 2.977-1.903 4.544-.322.988-.701 1.957-1.026 2.943-.394 1.192-.754 2.395-1.135 3.591-.236.742-.493 1.48-.726 2.223-.329 1.05-.072 1.975.67 2.758.74.791 1.506 1.559 2.295 2.301.342.316.774.558 1.198.762.499.241.95-.022 1.066-.583.053-.251.052-.514.079-.814zm-66.055 20.149c-.06-.304-.12-.692-.217-1.068-.436-1.689-1.042-3.303-1.94-4.81a101.013 101.013 0 01-5.394-10.395c-.373-.83-.833-1.62-1.254-2.429-.52-.996-1.5-1.292-2.467-1.504-.775-.17-1.536.756-1.402 1.642.07.464.23.93.43 1.357.35.745.721 1.486 1.16 2.182 1.481 2.359 2.696 4.854 3.808 7.403.783 1.795 1.698 3.51 2.87 5.092.945 1.274 2.159 2.254 3.31 3.306.19.172.43.307.714.2.24-.09.39-.393.382-.764v-.212zm-35.68-24.309c.012.677.466 1.008.984.83.586-.2 1.07-.568 1.519-.982 1.251-1.155 2.361-2.429 3.291-3.855 1.72-2.64 2.908-5.521 3.815-8.524.125-.413.164-.852.274-1.272.175-.667.296-1.367.583-1.986.4-.858.313-1.586-.269-2.296-.11-.133-.192-.298-.32-.409-.257-.223-.523-.572-.808-.594-.424-.03-.739.38-1.037.672-.179.175-.275.438-.394.67-1.686 3.285-3.215 6.636-4.365 10.152-.255.779-.644 1.515-.967 2.271-.167.395-.318.799-.496 1.19a4.324 4.324 0 01-.367.677c-.62.906-.99 1.924-1.355 2.947-.07.198-.072.421-.087.509zm40.613 9.987c.116 2.635.518 5.068 1.445 7.385.353.882.797 1.737 1.287 2.55a16.095 16.095 0 011.441 3.051c1.008 2.91 1.784 5.889 2.62 8.851.081.286.18.574.325.833.155.276.608.27.766-.007.123-.219.22-.469.259-.718.152-.995.108-2.001-.047-2.984-.47-2.954-.949-5.905-1.5-8.844-.36-1.921-.928-3.789-2.005-5.459a5.496 5.496 0 01-.758-1.926c-.276-1.387-.977-2.591-1.652-3.8-.185-.331-.48-.614-.769-.871-.533-.475-1.322-.133-1.344.529-.017.519-.048 1.039-.068 1.41zm-18.36-6.418c.297-.048.6-.077.892-.149a63.842 63.842 0 001.873-.509c.167-.047.33-.108.488-.179.436-.2.636-.602.5-1.07a3.4 3.4 0 00-.353-.834c-1.344-2.182-2.358-4.53-3.485-6.823-1.21-2.463-3.08-4.38-5.246-6.027-.529-.402-1.09-.513-1.696-.177-.251.139-.385.367-.338.645.049.296.145.588.244.873.51 1.479 1.23 2.863 1.968 4.237.329.611.67 1.215.992 1.828.79 1.511 1.327 3.099 1.476 4.811.04.471.16.94.285 1.398.079.288.21.57.362.83.454.766 1.089 1.228 2.037 1.146zm130.234-35.76c.02-.327.045-.543.046-.76.001-.252-.167-.391-.386-.459-.242-.075-.558.1-.597.365-.211 1.433-.858 2.724-1.295 4.083-.451 1.404-.838 2.828-.896 4.317-.034.882.072 1.733.554 2.502.092.147.172.303.28.437 1.241 1.543 2.628 1.584 4.045.353.912-.792 1.23-1.857 1.054-3.062a7.468 7.468 0 00-.701-2.225c-.462-.932-.94-1.858-1.414-2.786-.46-.903-.734-1.85-.69-2.766zm-3.009 37.968c-.111.015-.331.025-.539.079a1.507 1.507 0 00-1.154 1.53c.01.301.045.614.144.895.585 1.665 1.445 3.164 2.829 4.295.738.603 1.524 1.148 2.312 1.688.649.447 1.39.706 2.156.883.165.039.344.045.514.033.36-.029.598-.505.377-.793-.209-.271-.468-.506-.721-.739-.477-.442-.979-.858-1.446-1.31-.512-.497-.836-1.087-.905-1.824-.064-.688-.192-1.372-.31-2.055-.294-1.714-1.446-2.688-3.257-2.682zm-156.356.084c.173-.042.553-.124.926-.224 2.022-.531 3.523-1.776 4.71-3.448.123-.175.219-.374.303-.573.174-.405-.128-.645-.352-.895-.17-.189-.433-.185-.713-.01-.218.137-.423.299-.64.441-1.194.782-2.39 1.56-3.585 2.342-.362.236-.73.466-1.076.725a3.243 3.243 0 00-.549.546c-.165.205-.279.442-.133.715.135.253.356.366.634.379.087.005.175.002.475.002zm88.76-86.052c-.183-.015-.298.042-.262.254l-.02-.02c.177.003.266-.082.255-.262l.026.028zm-.027-.028c.169-.006.253-.094.25-.264l.033.033c-.164.008-.262.082-.255.258l-.028-.027z" fill="#000"/><path d="M91.754 33.191l.254-.257.025.023-.248.267-.03-.033zm.255-.257l.073-.036-.049.058-.024-.022zm2.889-14.06l-.11-.123c.007.03.005.074.022.084.031.016.072.012.11.016l-.022.023z" fill="#000"/></svg>